<?xml version="1.0" encoding="UTF-8"?>
<svg version="1.1" xmlns="http://www.w3.org/2000/svg" width="4096" height="2861">
<path d="M0 0 C13.07260242 0.00892456 26.14516851 0.00727694 39.2177703 -0.00181962 C126.73518712 -0.060981 214.23247098 0.38154851 346.28384658 2.19999694 C350.0524892 2.25533817 353.8211409 2.31003992 357.58979484 2.36460494 C381.48871051 2.71123565 405.38659917 3.09759912 429.28380653 3.54690932 C433.33564161 3.6230454 437.3875017 3.69776411 441.43936946 3.77213895 C526.06296586 5.3256514 610.67900068 7.25312112 1861.30175468 227.25892257 C1863.12009991 229.24762902 1864.89339477 231.25997913 1866.63769218 233.31361007 C1868.60314482 235.61125189 1870.63905339 237.8376538 1872.67675468 240.07142257 C1877.40693821 245.32096747 1881.88632995 250.74328476 1886.30175468 256.25892257 C1886.92388846 257.03163497 1886.92388846 257.03163497 1887.55859061 257.81995773 C1952.71454888 338.8849517 1983.856806 433.53199755 2008.30175468 565.25892257 C2008.4828881 566.30942794 2008.66402152 567.35993331 2008.85064384 568.44227218 C2023.34941126 652.75378477 2032.95648158 737.92157547 2062.89999457 1204.94080734 C2062.98441131 1207.48779076 2063.06995771 1210.03473422 2063.15560599 1212.58167648 C2063.55296434 1224.5079571 2063.88697725 1236.43561878 2064.19928428 1248.36440658 C2064.27223643 1251.13704458 2064.34594207 1253.90965473 2064.4205825 1256.68224715 C2065.90557636 1311.91412579 2066.63002826 1367.1090041 2066.55889275 1422.36051237 C2066.55135186 1428.89258806 2066.55408691 1435.42460299 2066.56249686 1441.95667648 C2066.63148992 1497.03035515 2065.84107745 1552.04760573 2064.35956164 1607.10115909 C2064.27380481 1610.30220872 2064.19021833 1613.50331458 2064.10650321 1616.70441817 C2063.80160863 1628.28074932 2063.46225035 1639.85549854 2063.07367393 1651.4293251 C2062.98430964 1654.09386689 2062.8963989 1656.75845462 2062.80852958 1659.4230461 C2059.46324082 1760.26991296 2054.23708446 1861.05443564 1880.30175468 2612.25892257 C1879.84300956 2612.80113448 1879.38426444 2613.3433464 1878.91161796 2613.90198898 C1864.76855025 2630.57500809 1849.94167277 2647.4149231 1833.24706718 2661.59486007 C1830.94942535 2663.56031271 1828.72302344 2665.59622128 1826.48925468 2667.63392257 C1821.23970977 2672.3641061 1815.81739249 2676.84349785 1810.30175468 2681.25892257 C1809.78661307 2681.67367843 1809.27147147 2682.08843429 1808.74071952 2682.51575851 C1749.89480354 2729.81314124 1680.78547153 2763.89564087 1607.30175468 2781.25892257 C1606.66248038 2781.41105209 1606.02320609 2781.5631816 1605.36455985 2781.7199211 C1516.732044 2802.76499754 1424.65537584 2810.83327549 438.42527457 2857.79251479 C434.44033756 2857.86521585 430.45542338 2857.93908083 426.47051641 2858.01340758 C401.99951025 2858.46926285 377.5276198 2858.85135203 353.05493041 2859.20457458 C349.7642796 2859.25222496 346.47363487 2859.30026402 343.1829924 2859.34848507 C257.39547873 2860.60504679 171.61553172 2861.50315644 36.47610039 2861.51784561 C23.49447014 2861.50892093 10.51287648 2861.51056844 -2.46875314 2861.51966476 C-89.67187173 2861.57902462 -176.85480479 2861.13107286 -308.66792993 2859.3178482 C-312.45011235 2859.2624729 -316.23230437 2859.20777692 -320.01449899 2859.1532402 C-344.10046366 2858.8054717 -368.18543414 2858.41918472 -392.26973657 2857.97073364 C-396.34698442 2857.89487047 -400.42425777 2857.8204703 -404.50153897 2857.74642342 C-487.92567419 2856.23112305 -571.3396305 2854.26100943 -1112.69824532 2832.25892257 C-1113.69405618 2832.19851035 -1114.68986703 2832.13809814 -1115.71585397 2832.07585525 C-1205.3996206 2826.62617556 -1295.1464288 2820.26039971 -1769.69824532 2684.25892257 C-1770.5400837 2683.59376632 -1770.5400837 2683.59376632 -1771.39892892 2682.91517257 C-1774.54819858 2680.41956364 -1777.63573545 2677.86002032 -1780.69824532 2675.25892257 C-1781.24045724 2674.80017745 -1781.78266915 2674.34143234 -1782.34131173 2673.86878585 C-1799.01433085 2659.72571814 -1815.85424586 2644.89884066 -1830.03418282 2628.20423507 C-1831.99963547 2625.90659325 -1834.03554404 2623.68019134 -1836.07324532 2621.44642257 C-1840.80342886 2616.19687767 -1845.2828206 2610.77456038 -1849.69824532 2605.25892257 C-1850.32037911 2604.48621017 -1850.32037911 2604.48621017 -1850.95508126 2603.69788741 C-1886.47284091 2559.50780797 -1914.40293135 2509.54733906 -1933.69824532 2456.25892257 C-1934.07690743 2455.21494308 -1934.45556954 2454.17096359 -1934.84570626 2453.09534835 C-1965.18986969 2368.33959958 -1976.83882501 2275.46273804 -2026.23183755 1658.87445449 C-2026.31848089 1656.27676677 -2026.40643997 1653.67912683 -2026.49469308 1651.08149337 C-2026.90914934 1638.79371098 -2027.26432699 1626.50461406 -2027.59256295 1614.21424102 C-2027.66747368 1611.41059665 -2027.74295543 1608.60697173 -2027.81906442 1605.80335998 C-2029.32276002 1550.26679114 -2030.02595532 1494.76645949 -2029.95538346 1439.21002554 C-2029.94783981 1432.5867368 -2029.95057947 1425.96350796 -2029.95898751 1419.3402214 C-2030.02692072 1364.33855719 -2029.26566219 1309.3942256 -2027.75717095 1254.41326474 C-2027.66894421 1251.18766335 -2027.58253834 1247.9620132 -2027.49585275 1244.73637008 C-2027.17304387 1232.82948457 -2026.81360507 1220.92420466 -2026.41025857 1209.0197792 C-2026.31835167 1206.30169614 -2026.22791468 1203.58356656 -2026.13763741 1200.86542892 C-2022.94142356 1104.99195841 -2018.1432855 1009.18244941 -1802.69824532 205.25892257 C-1800.6991398 203.42612633 -1798.67751748 201.64064675 -1796.60840157 199.88782882 C-1794.32020592 197.93654541 -1792.10725472 195.9107457 -1789.88574532 193.88392257 C-1784.63620042 189.15373904 -1779.21388314 184.67434729 -1773.69824532 180.25892257 C-1773.18310372 179.84416671 -1772.66796212 179.42941085 -1772.13721017 179.00208663 C-1727.91933509 143.46198625 -1677.98347252 115.63755184 -1624.69824532 96.25892257 C-1623.68617013 95.88557784 -1622.67409493 95.51223312 -1621.63135079 95.12757491 C-1537.22205958 64.29853299 -1443.32932544 57.07128536 -1244.81138925 38.42531203 C-1242.75901485 38.26370758 -1240.70670762 38.10127764 -1238.65442208 37.93854903 C-1126.93745208 29.09375365 -1014.97003302 23.1911869 -431.69824532 4.25892257 C-430.45181252 4.2343624 -429.20537972 4.20980224 -427.92117623 4.18449783 C-424.26549369 4.11269919 -420.60980184 4.0413993 -416.9541047 3.97034835 C-415.4255724 3.94048245 -415.4255724 3.94048245 -413.86616067 3.91001319 C-391.60532905 3.4805926 -369.34364873 3.10260084 -347.08130196 2.76136398 C-345.80461195 2.74178835 -344.52792195 2.72221271 -343.21254436 2.70204388 C-333.37448605 2.55155239 -323.53638075 2.40428106 -313.69824532 2.25892257 C-312.61740362 2.24295164 -312.61740362 2.24295164 -311.51472674 2.22665807 C-225.98007788 0.96462159 -140.45087014 0.03057199 0 0 Z " fill="#FF0000" transform="translate(2029.6982453241944,-0.2589225694537163)"/>
<path d="M0 0 C4.28456404 1.42818801 7.1910008 2.51298523 10.921875 4.73046875 C11.85112793 5.27823975 12.78038086 5.82601074 13.73779297 6.39038086 C15.22883545 7.27995483 15.22883545 7.27995483 16.75 8.1875 C18.91367549 9.46419778 21.07775166 10.74021671 23.2421875 12.015625 C24.35819336 12.67498047 25.47419922 13.33433594 26.62402344 14.01367188 C32.02126384 17.18925388 37.44766651 20.31371869 42.875 23.4375 C45.05729858 24.69530051 47.2395902 25.95311308 49.421875 27.2109375 C51.6145405 28.47403269 53.80724889 29.73705344 56 31 C69.6741218 38.87580724 83.33736974 46.76855846 96.96142578 54.73071289 C104.29312479 59.01244917 111.64282981 63.26220007 119 67.5 C128.33863207 72.8791408 137.65640317 78.29259447 146.9609375 83.73046875 C154.29283723 88.01222122 161.64267238 92.26210939 169 96.5 C177.34798459 101.30851844 185.68243184 106.13905683 194 111 C206.63743454 118.38414893 219.31675298 125.69490135 232 133 C245.67554314 140.87662589 259.33960958 148.77120092 272.96582031 156.73291016 C284.61659185 163.53587623 296.30903744 170.26642186 308 177 C321.67554314 184.87662589 335.33960958 192.77120092 348.96582031 200.73291016 C359.52620282 206.89919054 370.12126766 213.0049595 380.71777344 219.10888672 C387.22871257 222.86028024 393.73663194 226.61690994 400.24511719 230.37255859 C405.68585336 233.51182246 411.12731477 236.64981497 416.5703125 239.78515625 C428.0544882 246.40222892 439.52196894 253.04633977 450.96582031 259.73291016 C462.61659185 266.53587623 474.30903744 273.26642186 486 280 C499.6741218 287.87580724 513.33736974 295.76855846 526.96142578 303.73071289 C534.29312479 308.01244917 541.64282981 312.26220007 549 316.5 C558.33863207 321.8791408 567.65640317 327.29259447 576.9609375 332.73046875 C584.29283723 337.01222122 591.64267238 341.26210939 599 345.5 C607.34798459 350.30851844 615.68243184 355.13905683 624 360 C636.63743454 367.38414893 649.31675298 374.69490135 662 382 C675.67554314 389.87662589 689.33960958 397.77120092 702.96582031 405.73291016 C713.52620282 411.89919054 724.12126766 418.0049595 734.71777344 424.10888672 C741.22871257 427.86028024 747.73663194 431.61690994 754.24511719 435.37255859 C759.68585336 438.51182246 765.12731477 441.64981497 770.5703125 444.78515625 C782.0544882 451.40222892 793.52196894 458.04633977 804.96582031 464.73291016 C816.61659185 471.53587623 828.30903744 478.26642186 840 485 C853.6741218 492.87580724 867.33736974 500.76855846 880.96142578 508.73071289 C888.29312479 513.01244917 895.64282981 517.26220007 903 521.5 C912.33863207 526.8791408 921.65640317 532.29259447 930.9609375 537.73046875 C938.29283723 542.01222122 945.64267238 546.26210939 953 550.5 C961.34798459 555.30851844 969.68243184 560.13905683 978 565 C990.63743454 572.38414893 1003.31675298 579.69490135 1016 587 C1022.51278197 590.75113051 1029.02467679 594.50373298 1035.53125 598.265625 C1039.42399238 600.51619095 1043.32159707 602.75775313 1047.22610474 604.98780823 C1050.02885195 606.59061564 1052.82634864 608.2025546 1055.625 609.8125 C1056.66930176 610.40554932 1057.71360352 610.99859863 1058.78955078 611.60961914 C1059.73813965 612.15739014 1060.68672852 612.70516113 1061.6640625 613.26953125 C1062.50404785 613.75010986 1063.3440332 614.23068848 1064.20947266 614.72583008 C1064.80034668 615.14630615 1065.3912207 615.56678223 1066 616 C1066 616.66 1066 617.32 1066 618 C1065.36835938 618.35078613 1064.73671875 618.70157227 1064.0859375 619.06298828 C1051.39282908 626.12055775 1038.76035938 633.26144236 1026.23193359 640.6081543 C1018.55902601 645.10321074 1010.85046194 649.53360066 1003.125 653.9375 C994.06910492 659.10054455 985.02530621 664.28357644 976 669.5 C966.97469154 674.71642486 957.93072197 679.89914975 948.875 685.0625 C939.2422606 690.55522222 929.64662217 696.10808899 920.07763672 701.71118164 C911.82245885 706.53773718 903.52269644 711.28397003 895.21401978 716.01748657 C887.00995846 720.69252941 878.83498532 725.41433363 870.6875 730.1875 C862.04895937 735.24754227 853.35827305 740.2052825 844.63232422 745.11279297 C837.82200847 748.95061846 831.05774686 752.86155367 824.3125 756.8125 C815.61352949 761.90765196 806.882771 766.94424677 798.125 771.9375 C785.7996267 778.96582108 773.50277786 786.04240519 761.21777344 793.14111328 C755.81329358 796.26324603 750.40654621 799.38144734 745 802.5 C738.4405645 806.2837003 731.88153412 810.06809509 725.32421875 813.85546875 C715.3939076 819.58987378 705.46031285 825.31783306 695.5 831 C679.32638586 840.22849227 663.19860623 849.53590622 647.125 858.9375 C637.30717974 864.6783117 627.4427702 870.33532062 617.56298828 875.96850586 C609.6949277 880.45535321 601.84190334 884.96755663 594 889.5 C584.97469154 894.71642486 575.93072197 899.89914975 566.875 905.0625 C557.2422606 910.55522222 547.64662217 916.10808899 538.07763672 921.71118164 C529.82076358 926.53872836 521.51905969 931.28548671 513.20898438 936.02050781 C505.11255782 940.63502852 497.04198543 945.29103794 489 950 C479.22503358 955.72258797 469.4021294 961.35843499 459.5625 966.96875 C451.69462595 971.45555737 443.84174598 975.96764758 436 980.5 C426.97469154 985.71642486 417.93072197 990.89914975 408.875 996.0625 C399.2422606 1001.55522222 389.64662217 1007.10808899 380.07763672 1012.71118164 C371.82245885 1017.53773718 363.52269644 1022.28397003 355.21401978 1027.01748657 C347.00995846 1031.69252941 338.83498532 1036.41433363 330.6875 1041.1875 C322.04895937 1046.24754227 313.35827305 1051.2052825 304.63232422 1056.11279297 C297.82200847 1059.95061846 291.05774686 1063.86155367 284.3125 1067.8125 C275.61352949 1072.90765196 266.882771 1077.94424677 258.125 1082.9375 C245.7996267 1089.96582108 233.50277786 1097.04240519 221.21777344 1104.14111328 C215.81329358 1107.26324603 210.40654621 1110.38144734 205 1113.5 C198.4405645 1117.2837003 191.88153412 1121.06809509 185.32421875 1124.85546875 C175.3939076 1130.58987378 165.46031285 1136.31783306 155.5 1142 C139.32638586 1151.22849227 123.19860623 1160.53590622 107.125 1169.9375 C97.30717974 1175.6783117 87.4427702 1181.33532062 77.56298828 1186.96850586 C69.69492755 1191.45535329 61.84192007 1195.96758537 54 1200.5 C43.58207132 1206.52086526 33.1416499 1212.5013069 22.6875 1218.45898438 C16.18291109 1222.16875287 9.70595244 1225.91942666 3.26123047 1229.73242188 C1 1231 1 1231 0 1231 C0 824.77 0 418.54 0 0 Z " fill="#FFFEFE" transform="translate(1636,817)"/>
</svg>
